<svg xmlns="http://www.w3.org/2000/svg" viewBox="0 0 383.89 447.78"><defs><style>.cls-1{fill:#fff;}</style></defs><g id="Capa_2" data-name="Capa 2"><g id="Capa_1-2" data-name="Capa 1"><path class="cls-1" d="M179.22,64.62c7.47-7.43,14-14,20.58-20.5,2.94-2.94,6-5.77,8.7-8.94a21.12,21.12,0,0,0-1.57-28.9c-8.11-7.87-20.82-8.61-28.88-.7q-33.33,32.66-66,66c-8,8.2-7.06,20.88,1.55,29.61,14.37,14.56,28.91,29,43.37,43.43,6.24,6.24,12.43,12.52,18.71,18.71,9.6,9.48,22.77,9.93,31.52,1.12s8.3-21.84-1.33-31.5c-8.08-8.11-16.24-16.13-25.42-25.24a139.25,139.25,0,0,1,69,10.83c34.29,14.5,59.92,38.54,76.31,71.93a148.7,148.7,0,0,1-53.33,190.72c-63.32,40.66-147.54,27.34-195.36-30.58C28.84,292.16,29.71,200.17,94.61,143.09L64.44,113.48C3.71,164.89-20.71,259.74,20.24,340.81,65,429.36,164.13,469.2,256.56,436.37c89-31.62,139.75-121.77,124.71-212C364.87,126.05,276.63,58.37,179.22,64.62Z"/></g></g></svg>