<svg xmlns="http://www.w3.org/2000/svg" viewBox="0 0 403.05 447.78"><defs><style>.cls-1{fill:#fff;}</style></defs><g id="Capa_2" data-name="Capa 2"><g id="Capa_1-2" data-name="Capa 1"><path class="cls-1" d="M347.08,130.91l56-56-30.2-30.2L315.7,101.88A192.79,192.79,0,0,0,188.8,64.62c7.47-7.43,14-14,20.59-20.5,2.94-2.94,6-5.77,8.69-8.94a21.12,21.12,0,0,0-1.57-28.9c-8.11-7.87-20.82-8.61-28.88-.7q-33.33,32.66-66,66c-8,8.2-7.06,20.88,1.55,29.61,14.37,14.56,28.91,29,43.38,43.43,6.23,6.24,12.42,12.52,18.7,18.71,9.6,9.48,22.77,9.93,31.53,1.12s8.29-21.84-1.34-31.5c-8.08-8.11-16.24-16.13-25.41-25.24a139.21,139.21,0,0,1,69,10.83,156.87,156.87,0,0,1,26,14L78.25,339.33c-39.47-58.47-34.93-142.71,25.94-196.24L74,113.48c-60.73,51.41-85.14,146.26-44.2,227.33A202.48,202.48,0,0,0,47.7,369.88L0,417.58l30.2,30.2,46.46-46.46c50.86,44.23,122,59,189.48,35.05,89-31.62,139.75-121.77,124.71-212A190.37,190.37,0,0,0,347.08,130.91ZM282,381.19c-55.08,35.37-126,29.88-175-10.27L316.74,161.24a153.13,153.13,0,0,1,18.62,29.23A148.7,148.7,0,0,1,282,381.19Z"/></g></g></svg>